<svg width="32" height="31" viewBox="0 0 32 31" fill="none" xmlns="http://www.w3.org/2000/svg">
<path d="M0 15.5C0 6.93959 6.93959 0 15.5 0H16.5C25.0604 0 32 6.93959 32 15.5C32 24.0604 25.0604 31 16.5 31H15.5C6.93959 31 0 24.0604 0 15.5Z" fill="#026C00"/>
<path d="M11.0709 21.14C9.78291 21.14 8.79357 20.762 8.10291 20.006C7.41224 19.25 7.06691 18.172 7.06691 16.772V10.92H8.55091V16.94C8.55091 17.9013 8.77024 18.634 9.20891 19.138C9.64757 19.6327 10.2682 19.88 11.0709 19.88C11.8922 19.88 12.5222 19.6327 12.9609 19.138C13.3996 18.6433 13.6189 17.9107 13.6189 16.94V10.92H15.1029V16.8C15.1029 18.1813 14.7529 19.25 14.0529 20.006C13.3622 20.762 12.3682 21.14 11.0709 21.14ZM17.077 21V10.92H18.561V21H17.077ZM18.253 15.764L23.251 10.92H25.281L20.115 15.764H18.253ZM23.475 21L18.225 15.764H20.115L25.561 21H23.475Z" fill="#F1FFE0"/>
</svg>
